# xmcd
#
# Track frame offsets:
#	150
#	14103
#	33654
#	48548
#	63451
#	77733
#
# Disc length: 1397 seconds
#
# Revision: 1
# Processed by: cddbd v1.5.2PL0 Copyright (c) Steve Scherf et al.
# Submitted via: audiograbber 1.83.01
#
DISCID=50057306
DTITLE=No Mercy Reloaded - SIX
DYEAR=2011
DGENRE=Blues
TTITLE0=Sixteen Tons PT3
TTITLE1=Sunday Blues
TTITLE2=Hurt By Love
TTITLE3=Mean, Mean Girl
TTITLE4=Who Do You Love
TTITLE5=Can't Wait
EXTD=
EXTT0=
EXTT1=
EXTT2=
EXTT3=
EXTT4=
EXTT5=
PLAYORDER=
